# xmcd CD database file
#
# Track frame offsets:
#	150
#	13089
#	31845
#	47106
#	59203
#	81174
#	98363
#	113635
#	128143
#	143043
#
# Disc length: 2173 seconds
#
# Revision: 2
# Processed by: cddbd v1.5.2PL0 Copyright (c) Steve Scherf et al.
# Submitted via: CDex 1.70beta2
#
DISCID=7e087b0a
DTITLE=Robert Cray - The Score
DYEAR=1989
DGENRE=Blues
TTITLE0=Too Many Cooks
TTITLE1=The Score
TTITLE2=The Welfare (Turns It's Back On You)
TTITLE3=That's What I'll Do
TTITLE4=I'd Rather Be Wino
TTITLE5=Who's Been Talkin'
TTITLE6=Sleeping In The Ground
TTITLE7=I'm Gonna Forget About You
TTITLE8=Nice As A Fool Can Be
TTITLE9=If You're Thinkin' What I'm Thinkin'
EXTD=YEAR: 1989
EXTT0=
EXTT1=
EXTT2=
EXTT3=
EXTT4=
EXTT5=
EXTT6=
EXTT7=
EXTT8=
EXTT9=
PLAYORDER=
